<svg xmlns="http://www.w3.org/2000/svg" xmlns:xlink="http://www.w3.org/1999/xlink" width="640px" height="640px" viewBox="0 0 64 64" version="1.1">
  <title>
    image-not-found
  </title>
  <desc>
    Created by simsir
  </desc>
  <g id="Page-1" stroke="none" stroke-width="1" fill="none" fill-rule="evenodd">
    <g id="Icons" transform="translate(-74.000000, -13.000000)">
      <g id="image-not-found" transform="translate(64.000000, 0.000000)">
        <g id="BG">
          <rect x="0" y="0" width="64" height="64"/>
        </g>
        <g id="icon" transform="translate(14.000000, 26.500000)" fill="#CCCCCC">
          <path d="M38.75 16.5833333C41.1752232 16.5833333 43.1428571 14.6236979 43.1428571 12.2083333 43.1428571 9.79296875 41.1752232 7.83333333 38.75 7.83333333 36.3247768 7.83333333 34.3571429 9.79296875 34.3571429 12.2083333 34.3571429 14.6236979 36.3247768 16.5833333 38.75 16.5833333L38.75 16.5833333Z" id="Shape"/>
          <path d="M46.4375 2L10.5625 2C9.13482143 2 8 3.15755208 8 4.57942708L8 34.4205729C8 35.8424479 9.13482143 37 10.5625 37L46.4375 37C47.8651786 37 49 35.8424479 49 34.4205729L49 4.57942708C49 3.15755208 47.8651786 2 46.4375 2L46.4375 2ZM37.0020089 20.0195313C36.7274554 19.7005208 36.3064732 19.4544271 35.8305804 19.4544271 35.3638393 19.4544271 35.034375 19.6731771 34.6591518 19.9739583L32.9477679 21.4140625C32.5908482 21.6692708 32.3071429 21.8424479 31.8953125 21.8424479 31.5017857 21.8424479 31.1448661 21.6966146 30.8886161 21.46875 30.7970982 21.3867188 30.6323661 21.2317708 30.4950893 21.0950521L25.5714286 15.7903646C25.2053571 15.3710938 24.65625 15.1067708 24.0430804 15.1067708 23.4299107 15.1067708 22.8625 15.4075521 22.5055804 15.8177083L10.9285714 29.7265625 10.9285714 5.98307292C11.0200893 5.36328125 11.5051339 4.91666667 12.1274554 4.91666667L44.8633929 4.91666667C45.4948661 4.91666667 46.0073661 5.38151042 46.0439732 6.01041667L46.0714286 29.7447917 37.0020089 20.0195313 37.0020089 20.0195313Z" id="Shape"/>
          <path d="M-0.00667459542 18.4929033L-0.00667459542 20.4929033 56.8371319 20.4929033 56.8371319 18.4929033 -0.00667459542 18.4929033Z" id="Path-7" transform="translate(28.415229, 19.492903) rotate(-40.000000) translate(-28.415229, -19.492903) "/>
        </g>
      </g>
    </g>
  </g>
</svg>
