<?xml version="1.0" encoding="UTF-8" standalone="no"?>
<svg width="640px" height="640px" viewBox="0 0 64 64" version="1.1" xmlns="http://www.w3.org/2000/svg" xmlns:xlink="http://www.w3.org/1999/xlink">
    <title>image</title>
    <desc>Created by simsir</desc>
    <g id="Page-1" stroke="none" stroke-width="1" fill="none" fill-rule="evenodd">
        <g id="Icons" transform="translate(-12.000000, -15.000000)">
            <g id="image">
                <g id="BG">
                    <rect x="0" y="0" width="64" height="64"></rect>
                </g>
                <g id="icon" transform="translate(24.000000, 30.000000)" fill="#CCCCCC">
                    <path d="M30.75,14.5833333 C33.1752232,14.5833333 35.1428571,12.6236979 35.1428571,10.2083333 C35.1428571,7.79296875 33.1752232,5.83333333 30.75,5.83333333 C28.3247768,5.83333333 26.3571429,7.79296875 26.3571429,10.2083333 C26.3571429,12.6236979 28.3247768,14.5833333 30.75,14.5833333 L30.75,14.5833333 Z" id="Shape"></path>
                    <path d="M38.4375,0 L2.5625,0 C1.13482143,0 0,1.15755208 0,2.57942708 L0,32.4205729 C0,33.8424479 1.13482143,35 2.5625,35 L38.4375,35 C39.8651786,35 41,33.8424479 41,32.4205729 L41,2.57942708 C41,1.15755208 39.8651786,0 38.4375,0 L38.4375,0 Z M29.0020089,18.0195313 C28.7274554,17.7005208 28.3064732,17.4544271 27.8305804,17.4544271 C27.3638393,17.4544271 27.034375,17.6731771 26.6591518,17.9739583 L24.9477679,19.4140625 C24.5908482,19.6692708 24.3071429,19.8424479 23.8953125,19.8424479 C23.5017857,19.8424479 23.1448661,19.6966146 22.8886161,19.46875 C22.7970982,19.3867188 22.6323661,19.2317708 22.4950893,19.0950521 L17.5714286,13.7903646 C17.2053571,13.3710938 16.65625,13.1067708 16.0430804,13.1067708 C15.4299107,13.1067708 14.8625,13.4075521 14.5055804,13.8177083 L2.92857143,27.7265625 L2.92857143,3.98307292 C3.02008929,3.36328125 3.50513393,2.91666667 4.12745536,2.91666667 L36.8633929,2.91666667 C37.4948661,2.91666667 38.0073661,3.38151042 38.0439732,4.01041667 L38.0714286,27.7447917 L29.0020089,18.0195313 L29.0020089,18.0195313 Z" id="Shape"></path>
                </g>
            </g>
        </g>
    </g>
</svg>
